<svg height="512" viewBox="0 0 479.064 479.064" width="512" xmlns="http://www.w3.org/2000/svg"><path d="M149.275 344.692c5.846 5.846 5.846 15.325 0 21.172-5.846 5.846-15.325 5.846-21.172 0-5.846-5.846-5.846-15.325 0-21.172 5.847-5.847 15.326-5.847 21.172 0m61.883 0c5.846 5.846 5.846 15.325 0 21.172-5.846 5.846-15.325 5.846-21.172 0-5.846-5.846-5.846-15.325 0-21.172s15.325-5.847 21.172 0m61.882 0c5.846 5.846 5.846 15.325 0 21.172-5.846 5.846-15.325 5.846-21.172 0-5.846-5.846-5.846-15.325 0-21.172 5.847-5.847 15.325-5.847 21.172 0"/><path d="M447.059 276.184c-5.395-5.395-5.599-14.05-.453-20.585 21.228-27.003 32.456-58.435 32.456-90.92C479.062 73.876 391.753.003 284.445.003S89.827 73.877 89.827 164.679c0 3.637.594 7.133.912 10.694C36.31 204.602.003 255.917.003 314.385c0 32.485 11.228 63.917 32.456 90.92 5.146 6.535 4.941 15.19-.453 20.585L4.389 453.506a14.955 14.955 0 00-3.246 16.316 14.956 14.956 0 0013.83 9.24H194.62c101.336 0 184.74-65.902 193.72-149.706h75.75c6.053 0 11.52-3.64 13.83-9.24a14.953 14.953 0 00-3.246-16.316zM194.621 449.12H51.114l2.061-2.061c16.038-16.023 17.237-41.944 2.822-60.262-17.047-21.666-26.052-46.71-26.052-72.411 0-74.297 73.873-134.735 164.676-134.735s164.676 60.438 164.676 134.735S285.424 449.12 194.621 449.12zm193.72-149.706c-8.98-83.804-92.384-149.706-193.72-149.706-26.463 0-51.688 4.528-74.71 12.661 1.528-73.223 74.683-132.425 164.534-132.425 90.803 0 164.676 60.438 164.676 134.735 0 25.701-9.006 50.745-26.052 72.411-14.415 18.318-13.216 44.239 2.822 60.262l2.061 2.061c-.001.002-39.611.002-39.611.001z"/></svg>