<svg height="512" width="512" xmlns="http://www.w3.org/2000/svg"><path d="M426.964 178.919h-62.749c8.442-15.128 12.855-31.377 12.855-47.826 0-35.759-20.128-69.106-56.676-93.898C285.035 13.209 238.212 0 188.553 0 138.881 0 92.05 13.209 56.687 37.195 20.137 61.987.007 95.334.007 131.093c0 27.005 11.437 52.646 33.156 74.513l-17.149 50.509a10.001 10.001 0 009.47 13.215 9.98 9.98 0 003.211-.531l68.036-23.083c15.56 6.014 32.136 10.409 49.418 13.155a85.482 85.482 0 00-.165 5.08 84.63 84.63 0 004.981 28.579H24.604c-13.563 0-24.598 11.035-24.598 24.598v113.61c0 13.548 11.035 24.57 24.598 24.57h29.91V502a10 10 0 0015.955 8.033l73.823-54.725h41.681c5.523 0 10-4.477 10-10s-4.477-10-10-10H140.99a9.994 9.994 0 00-5.955 1.967l-60.521 44.864v-36.831c0-5.523-4.477-10-10-10h-39.91c-2.492 0-4.598-2.093-4.598-4.57v-113.61c0-2.493 2.105-4.598 4.598-4.598h283.395c2.492 0 4.598 2.105 4.598 4.598v113.61c0 2.477-2.106 4.57-4.598 4.57h-32.2c-5.523 0-10 4.477-10 10s4.477 10 10 10h32.2c13.563 0 24.598-11.022 24.598-24.57v-81.784h24.691l68.925 54.776a9.994 9.994 0 0010.481 1.218 10 10 0 005.739-8.854l.941-48.76c17.588-3.464 33.7-12.461 46.072-25.875 14.54-15.764 22.547-36.188 22.547-57.508 0-46.887-38.144-85.032-85.029-85.032zm-326.205 46.882a9.997 9.997 0 00-6.974-.204l-52.315 17.75 12.672-37.322a10 10 0 00-2.696-10.571c-20.568-18.938-31.439-41.192-31.439-64.359 0-28.924 17.014-56.393 47.906-77.347C99.998 31.985 142.842 20 188.553 20c45.698 0 88.533 11.985 120.614 33.747 30.891 20.955 47.903 48.424 47.903 77.347 0 16.775-5.579 32.841-16.568 47.826H230.985c-38.265 0-70.694 25.429-81.316 60.277-17.221-2.707-33.638-7.197-48.91-13.396zm331.909 102.88a10 10 0 00-9.126 9.769l-.715 37.043L367 331.125a10 10 0 00-6.222-2.171h-28.181v-11.826c0-13.563-11.035-24.598-24.598-24.598H172.658a64.679 64.679 0 01-6.674-28.579c0-35.858 29.159-65.032 65.001-65.032h195.979c35.857 0 65.029 29.173 65.029 65.032 0 33.385-26.058 61.818-59.325 64.73z"/><path d="M230.872 435.308c-5.523 0-10 4.477-10 10s4.477 10 10 10h.057c5.523 0 9.972-4.477 9.972-10s-4.506-10-10.029-10z"/></svg>