<svg id="Layer_1" enable-background="new 0 0 512 512" height="512" viewBox="0 0 512 512" width="512" xmlns="http://www.w3.org/2000/svg"><g><g><path d="m426.964 178.919h-62.749c8.442-15.128 12.855-31.377 12.855-47.826 0-35.759-20.128-69.106-56.676-93.898-35.359-23.986-82.182-37.195-131.841-37.195-49.672 0-96.503 13.209-131.866 37.195-36.55 24.792-56.68 58.139-56.68 93.898 0 27.005 11.437 52.646 33.156 74.513l-17.149 50.509c-1.224 3.605-.294 7.593 2.397 10.285 1.907 1.907 4.463 2.93 7.073 2.93 1.075 0 2.16-.174 3.211-.531l68.036-23.083c15.56 6.014 32.136 10.409 49.418 13.155-.1 1.682-.165 3.373-.165 5.08 0 9.778 1.703 19.442 4.981 28.579h-126.361c-13.563 0-24.598 11.035-24.598 24.598v113.61c0 13.548 11.035 24.57 24.598 24.57h29.91v46.692c0 3.778 2.129 7.233 5.503 8.932 1.422.716 2.962 1.068 4.496 1.068 2.106 0 4.2-.665 5.956-1.967l73.823-54.725h41.681c5.523 0 10-4.477 10-10s-4.477-10-10-10h-44.983c-2.145 0-4.232.689-5.955 1.967l-60.521 44.864v-36.831c0-5.523-4.477-10-10-10h-39.91c-2.492 0-4.598-2.093-4.598-4.57v-113.61c0-2.493 2.105-4.598 4.598-4.598h283.395c2.492 0 4.598 2.105 4.598 4.598v113.61c0 2.477-2.106 4.57-4.598 4.57h-32.2c-5.523 0-10 4.477-10 10s4.477 10 10 10h32.2c13.563 0 24.598-11.022 24.598-24.57v-81.784h24.691l68.925 54.776c1.803 1.433 4.003 2.171 6.223 2.171 1.446 0 2.9-.313 4.258-.953 3.441-1.62 5.666-5.052 5.739-8.854l.941-48.76c17.588-3.464 33.7-12.461 46.072-25.875 14.54-15.764 22.547-36.188 22.547-57.508 0-46.887-38.144-85.032-85.029-85.032zm-326.205 46.882c-2.224-.903-4.7-.976-6.974-.204l-52.315 17.75 12.672-37.322c1.272-3.747.215-7.891-2.696-10.571-20.568-18.938-31.439-41.192-31.439-64.359 0-28.924 17.014-56.393 47.906-77.347 32.085-21.763 74.929-33.748 120.64-33.748 45.698 0 88.533 11.985 120.614 33.747 30.891 20.955 47.903 48.424 47.903 77.347 0 16.775-5.579 32.841-16.568 47.826h-109.517c-38.265 0-70.694 25.429-81.316 60.277-17.221-2.707-33.638-7.197-48.91-13.396zm331.909 102.88c-5.091.446-9.027 4.659-9.126 9.769l-.715 37.043-55.827-44.368c-1.769-1.406-3.962-2.171-6.222-2.171h-28.181v-11.826c0-13.563-11.035-24.598-24.598-24.598h-135.341c-4.374-8.879-6.674-18.653-6.674-28.579 0-35.858 29.159-65.032 65.001-65.032h195.979c35.857 0 65.029 29.173 65.029 65.032 0 33.385-26.058 61.818-59.325 64.73z"/><path d="m230.872 435.308c-5.523 0-10 4.477-10 10s4.477 10 10 10h.057c5.523 0 9.972-4.477 9.972-10s-4.506-10-10.029-10z"/></g></g></svg>